<?xml version="1.0" encoding="UTF-8"?>
<!DOCTYPE svg PUBLIC "-//W3C//DTD SVG 1.1//EN" "http://www.w3.org/Graphics/SVG/1.1/DTD/svg11.dtd">
<!-- Creator: CorelDRAW X8 -->
<svg xmlns="http://www.w3.org/2000/svg" xml:space="preserve" width="1329.77mm" height="219.287mm" version="1.1" style="shape-rendering:geometricPrecision; text-rendering:geometricPrecision; image-rendering:optimizeQuality; fill-rule:evenodd; clip-rule:evenodd"
viewBox="0 0 131581 21698"
 xmlns:xlink="http://www.w3.org/1999/xlink">
 <defs>
  <style type="text/css">
   <![CDATA[
    .fil0 {fill:#0771C5}
   ]]>
  </style>
 </defs>
 <g id="Слой_x0020_1">
  <metadata id="CorelCorpID_0Corel-Layer"/>
  <path class="fil0" d="M62409 2961l-2332 2055c-817,-1135 -1649,-1703 -2496,-1703 -415,0 -752,112 -1013,330 -264,223 -395,472 -395,748 0,276 92,541 280,786 257,330 1028,1036 2313,2121 1200,1005 1929,1638 2186,1898 636,645 1089,1258 1357,1845 265,591 399,1231 399,1925 0,1358 -468,2474 -1407,3360 -936,882 -2160,1323 -3671,1323 -1177,0 -2201,-288 -3075,-863 -875,-579 -1626,-1484 -2247,-2719l2649 -1596c798,1458 1715,2186 2750,2186 541,0 997,-157 1365,-471 369,-315 553,-679 553,-1089 0,-372 -138,-748 -418,-1124 -276,-372 -890,-947 -1837,-1718 -1803,-1465 -2965,-2597 -3490,-3394 -526,-798 -790,-1592 -790,-2386 0,-1146 437,-2128 1308,-2945 874,-821 1952,-1231 3232,-1231 825,0 1611,192 2355,572 748,383 1553,1077 2424,2090zm-56425 9370l14661 0 0 2429 -14661 0 0 -2429zm-5984 -4538l20645 0 0 2429 -20645 0 0 -2429zm5984 -4537l14661 0 0 2428 -14661 0 0 -2428zm20294 -3256l19943 0c1619,0 2944,1324 2944,2943l0 12129c0,1619 -1325,2943 -2944,2943l-19943 0c-1619,0 -2943,-1324 -2943,-2943l0 -12129c0,-1619 1324,-2943 2943,-2943zm11336 10666l6873 4995 -7877 -4265 -499 362 -499 -362 -7877 4265 6873 -4995 -10384 -7545 11887 6435 11886 -6435 -10383 7545zm92007 -10666c537,0 997,196 1381,583 387,387 579,855 579,1407 0,545 -192,1009 -572,1392 -379,384 -836,576 -1369,576 -544,0 -1008,-196 -1392,-587 -387,-391 -579,-867 -579,-1427 0,-537 192,-993 572,-1373 379,-379 839,-571 1380,-571zm-1538 5016l3061 0 0 12219 -3061 0 0 -12219zm-11808 0l0 1342c553,-544 1151,-958 1795,-1231 644,-272 1335,-410 2067,-410 1592,0 2946,602 4062,1803 1116,1204 1672,2745 1672,4628 0,1814 -576,3333 -1730,4553 -1151,1223 -2516,1833 -4096,1833 -702,0 -1357,-127 -1963,-376 -606,-249 -1208,-660 -1807,-1231l0 5771 -3060 0 0 -16682 3060 0zm3214 2508c-962,0 -1764,330 -2397,986 -636,659 -955,1519 -955,2581 0,1085 319,1963 955,2631 633,671 1435,1004 2397,1004 936,0 1722,-341 2362,-1020 641,-682 959,-1549 959,-2604 0,-1047 -314,-1906 -943,-2573 -625,-671 -1419,-1005 -2378,-1005zm-12421 -2508l3060 0 0 12219 -3060 0 0 -1301c-599,568 -1201,975 -1803,1224 -602,249 -1258,376 -1960,376 -1583,0 -2949,-610 -4103,-1833 -1154,-1220 -1730,-2739 -1730,-4553 0,-1883 560,-3424 1676,-4628 1116,-1201 2470,-1803 4065,-1803 737,0 1423,138 2067,410 645,273 1239,687 1788,1231l0 -1342zm-3226 2508c-951,0 -1741,334 -2366,1005 -629,667 -943,1526 -943,2573 0,1055 318,1922 958,2604 641,679 1427,1020 2363,1020 962,0 1764,-333 2397,-1004 636,-668 955,-1546 955,-2631 0,-1062 -319,-1922 -955,-2581 -633,-656 -1438,-986 -2409,-986zm-8763 -4563l-2331 2055c-817,-1135 -1649,-1703 -2497,-1703 -414,0 -752,112 -1012,330 -265,223 -395,472 -395,748 0,276 92,541 280,786 257,330 1027,1036 2312,2121 1200,1005 1929,1638 2186,1898 637,645 1089,1258 1358,1845 264,591 398,1231 398,1925 0,1358 -467,2474 -1407,3360 -936,882 -2159,1323 -3670,1323 -1177,0 -2201,-288 -3076,-863 -874,-579 -1626,-1484 -2247,-2719l2650 -1596c798,1458 1714,2186 2750,2186 540,0 997,-157 1365,-471 368,-315 552,-679 552,-1089 0,-372 -138,-748 -418,-1124 -276,-372 -890,-947 -1837,-1718 -1802,-1465 -2964,-2597 -3490,-3394 -525,-798 -790,-1592 -790,-2386 0,-1146 437,-2128 1308,-2945 874,-821 1952,-1231 3233,-1231 824,0 1611,192 2355,572 747,383 1553,1077 2423,2090zm-27796 -2248l3049 0 3847 11524 3865 -11524 3041 0 2769 16522 -3033 0 -1764 -10436 -3498 10436 -2776 0 -3483 -10436 -1798 10436 -3068 0 2849 -16522z"/>
 </g>
</svg>
